<?xml version="1.0" encoding="UTF-8" standalone="no"?><!DOCTYPE svg PUBLIC "-//W3C//DTD SVG 1.1//EN" "http://www.w3.org/Graphics/SVG/1.1/DTD/svg11.dtd"><svg width="100%" height="100%" viewBox="0 0 25 24" version="1.1" xmlns="http://www.w3.org/2000/svg" xmlns:xlink="http://www.w3.org/1999/xlink" xml:space="preserve" xmlns:serif="http://www.serif.com/" style="fill-rule:evenodd;clip-rule:evenodd;stroke-linejoin:round;stroke-miterlimit:2;"><g><path d="M5.001,9.056c-0.583,-0 -1.119,-0.114 -1.607,-0.34c-0.489,-0.226 -0.888,-0.539 -1.197,-0.938c-0.31,-0.398 -0.488,-0.854 -0.536,-1.366l0,-3.661c0.048,-0.512 0.226,-0.977 0.536,-1.394c0.309,-0.416 0.708,-0.744 1.197,-0.982c0.488,-0.238 1.024,-0.357 1.607,-0.357c0.822,-0 1.551,0.196 2.188,0.589c0.637,0.393 1.137,0.929 1.5,1.608c0.364,0.678 0.545,1.452 0.545,2.322c0,0.869 -0.181,1.643 -0.545,2.322c-0.363,0.678 -0.863,1.214 -1.5,1.607c-0.637,0.393 -1.366,0.59 -2.188,0.59Zm-5.001,3.482l0,-12.342l2.733,0l-0,2.233l-0.447,2.108l0.411,2.107l0,5.894l-2.697,0Zm4.501,-5.947c0.393,-0 0.735,-0.09 1.027,-0.268c0.292,-0.179 0.521,-0.423 0.688,-0.733c0.166,-0.309 0.25,-0.66 0.25,-1.053c-0,-0.405 -0.084,-0.762 -0.25,-1.072c-0.167,-0.31 -0.396,-0.551 -0.688,-0.723c-0.292,-0.173 -0.628,-0.259 -1.009,-0.259c-0.381,-0 -0.718,0.086 -1.009,0.259c-0.292,0.172 -0.521,0.413 -0.688,0.723c-0.167,0.31 -0.25,0.667 -0.25,1.072c-0,0.393 0.08,0.744 0.241,1.053c0.161,0.31 0.39,0.554 0.688,0.733c0.297,0.178 0.631,0.268 1,0.268Z" style="fill-rule:nonzero;"/><path d="M14.807,9.073c-0.893,0 -1.7,-0.199 -2.42,-0.598c-0.721,-0.399 -1.289,-0.944 -1.706,-1.634c-0.417,-0.691 -0.625,-1.465 -0.625,-2.322c-0,-0.857 0.208,-1.626 0.625,-2.304c0.417,-0.679 0.982,-1.218 1.697,-1.617c0.714,-0.399 1.524,-0.598 2.429,-0.598c0.905,0 1.714,0.196 2.429,0.589c0.714,0.393 1.28,0.932 1.697,1.617c0.416,0.685 0.625,1.456 0.625,2.313c-0,0.857 -0.209,1.631 -0.625,2.322c-0.417,0.69 -0.983,1.235 -1.697,1.634c-0.715,0.399 -1.524,0.598 -2.429,0.598Zm-0,-2.482c0.393,-0 0.738,-0.087 1.036,-0.259c0.297,-0.173 0.527,-0.417 0.687,-0.733c0.161,-0.315 0.241,-0.675 0.241,-1.08c0,-0.405 -0.083,-0.759 -0.25,-1.063c-0.166,-0.304 -0.395,-0.542 -0.687,-0.714c-0.292,-0.173 -0.634,-0.259 -1.027,-0.259c-0.381,-0 -0.721,0.086 -1.018,0.259c-0.298,0.172 -0.53,0.413 -0.697,0.723c-0.167,0.31 -0.25,0.667 -0.25,1.072c0,0.393 0.083,0.747 0.25,1.062c0.167,0.316 0.399,0.56 0.697,0.733c0.297,0.172 0.637,0.259 1.018,0.259Z" style="fill-rule:nonzero;"/><path d="M0,23.321l0,-8.68l2.733,-0l-0,8.68l-2.733,0Zm5.555,0l-0,-5.072c-0,-0.441 -0.134,-0.783 -0.402,-1.027c-0.268,-0.244 -0.598,-0.366 -0.991,-0.366c-0.274,-0 -0.518,0.056 -0.733,0.169c-0.214,0.113 -0.384,0.271 -0.509,0.474c-0.125,0.202 -0.187,0.452 -0.187,0.75l-1.054,-0.465c-0,-0.69 0.149,-1.283 0.446,-1.777c0.298,-0.494 0.703,-0.875 1.215,-1.143c0.512,-0.268 1.09,-0.402 1.733,-0.402c0.607,0 1.152,0.137 1.634,0.411c0.482,0.274 0.866,0.655 1.152,1.143c0.286,0.488 0.429,1.072 0.429,1.751l-0,5.554l-2.733,0Zm5.555,0l-0,-5.072c-0,-0.441 -0.134,-0.783 -0.402,-1.027c-0.268,-0.244 -0.599,-0.366 -0.992,-0.366c-0.273,-0 -0.518,0.056 -0.732,0.169c-0.214,0.113 -0.384,0.271 -0.509,0.474c-0.125,0.202 -0.187,0.452 -0.187,0.75l-1.572,-0.214c0.024,-0.739 0.199,-1.373 0.527,-1.903c0.327,-0.53 0.762,-0.94 1.303,-1.232c0.542,-0.292 1.153,-0.438 1.831,-0.438c0.667,0 1.259,0.14 1.777,0.42c0.518,0.28 0.929,0.679 1.233,1.197c0.303,0.518 0.455,1.14 0.455,1.866l0,5.376l-2.732,0Z" style="fill-rule:nonzero;"/><path d="M19.772,23.518c-0.893,-0 -1.7,-0.2 -2.42,-0.599c-0.72,-0.398 -1.289,-0.943 -1.706,-1.634c-0.417,-0.69 -0.625,-1.464 -0.625,-2.322c0,-0.857 0.208,-1.625 0.625,-2.304c0.417,-0.679 0.983,-1.217 1.697,-1.616c0.714,-0.399 1.524,-0.599 2.429,-0.599c0.905,0 1.715,0.197 2.429,0.59c0.715,0.393 1.28,0.932 1.697,1.616c0.417,0.685 0.625,1.456 0.625,2.313c0,0.858 -0.208,1.632 -0.625,2.322c-0.417,0.691 -0.982,1.236 -1.697,1.634c-0.714,0.399 -1.524,0.599 -2.429,0.599Zm0,-2.483c0.393,0 0.738,-0.086 1.036,-0.259c0.298,-0.172 0.527,-0.417 0.688,-0.732c0.16,-0.316 0.241,-0.676 0.241,-1.081c-0,-0.405 -0.084,-0.759 -0.25,-1.062c-0.167,-0.304 -0.396,-0.542 -0.688,-0.715c-0.292,-0.173 -0.634,-0.259 -1.027,-0.259c-0.381,0 -0.72,0.086 -1.018,0.259c-0.298,0.173 -0.53,0.414 -0.697,0.723c-0.166,0.31 -0.25,0.667 -0.25,1.072c0,0.393 0.084,0.747 0.25,1.063c0.167,0.315 0.399,0.56 0.697,0.732c0.298,0.173 0.637,0.259 1.018,0.259Z" style="fill-rule:nonzero;"/></g></svg>